HIERARCHY
ROOT Hips
{
	OFFSET 0.00000 0.00000 0.00000
	CHANNELS 6 Xposition Yposition Zposition Zrotation Yrotation Xrotation 
	JOINT LHipJoint
	{
		OFFSET 0 0 0
		CHANNELS 3 Zrotation Yrotation Xrotation
		JOINT LeftUpLeg
		{
			OFFSET 1.67711 -1.75950 0.70433
			CHANNELS 3 Zrotation Yrotation Xrotation
			JOINT LeftLeg
			{
				OFFSET 2.44937 -6.72958 0.00000
				CHANNELS 3 Zrotation Yrotation Xrotation
				JOINT LeftFoot
				{
					OFFSET 2.61292 -7.17894 0.00000
					CHANNELS 3 Zrotation Yrotation Xrotation
					JOINT LeftToeBase
					{
						OFFSET 0.17811 -0.48914 1.82515
						CHANNELS 3 Zrotation Yrotation Xrotation
						End Site
						{
							OFFSET -0.00112 -0.00292 0.95564
						}
					}
				}
			}
		}
	}
	JOINT RHipJoint
	{
		OFFSET 0 0 0
		CHANNELS 3 Zrotation Yrotation Xrotation
		JOINT RightUpLeg
		{
			OFFSET -1.61866 -1.75949 0.70433
			CHANNELS 3 Zrotation Yrotation Xrotation
			JOINT RightLeg
			{
				OFFSET -2.36243 -6.49072 0.00000
				CHANNELS 3 Zrotation Yrotation Xrotation
				JOINT RightFoot
				{
					OFFSET -2.64336 -7.26259 0.00000
					CHANNELS 3 Zrotation Yrotation Xrotation
					JOINT RightToeBase
					{
						OFFSET -0.18169 -0.49935 1.90192
						CHANNELS 3 Zrotation Yrotation Xrotation
						End Site
						{
							OFFSET 0.00039 0.00229 0.99264
						}
					}
				}
			}
		}
	}
	JOINT LowerBack
	{
		OFFSET 0 0 0
		CHANNELS 3 Zrotation Yrotation Xrotation
		JOINT Spine
		{
			OFFSET -0.01926 2.19655 -0.12599
			CHANNELS 3 Zrotation Yrotation Xrotation
			JOINT Spine1
			{
				OFFSET 0.01663 2.20532 -0.00079
				CHANNELS 3 Zrotation Yrotation Xrotation
				JOINT Neck
				{
					OFFSET 0 0 0
					CHANNELS 3 Zrotation Yrotation Xrotation
					JOINT Neck1
					{
						OFFSET 0.10604 1.75174 0.14226
						CHANNELS 3 Zrotation Yrotation Xrotation
						JOINT Head
						{
							OFFSET -0.09898 1.68516 -0.48414
							CHANNELS 3 Zrotation Yrotation Xrotation
							End Site
							{
								OFFSET -0.02896 1.78316 -0.18415
							}
						}
					}
				}
				JOINT LeftShoulder
				{
					OFFSET 0 0 0
					CHANNELS 3 Zrotation Yrotation Xrotation
					JOINT LeftArm
					{
						OFFSET 3.30655 1.16959 -0.30867
						CHANNELS 3 Zrotation Yrotation Xrotation
						JOINT LeftForeArm
						{
							OFFSET 5.35289 -0.00000 -0.00000
							CHANNELS 3 Zrotation Yrotation Xrotation
							JOINT LeftHand
							{
								OFFSET 3.27727 -0.00000 -0.00000
								CHANNELS 3 Zrotation Yrotation Xrotation
								JOINT LeftFingerBase
								{
									OFFSET 0 0 0
									CHANNELS 3 Zrotation Yrotation Xrotation
									JOINT LeftHandIndex1
									{
										OFFSET 0.54443 0.00002 0.00009
										CHANNELS 3 Zrotation Yrotation Xrotation
										End Site
										{
											OFFSET 0.43891 -0.00000 -0.00000
										}
									}
								}
								JOINT LThumb
								{
									OFFSET 0 0 0
									CHANNELS 3 Zrotation Yrotation Xrotation
									End Site
									{
										OFFSET 0.44564 0.00002 0.44570
									}
								}
							}
						}
					}
				}
				JOINT RightShoulder
				{
					OFFSET 0 0 0
					CHANNELS 3 Zrotation Yrotation Xrotation
					JOINT RightArm
					{
						OFFSET -3.27172 0.97864 -0.36131
						CHANNELS 3 Zrotation Yrotation Xrotation
						JOINT RightForeArm
						{
							OFFSET -5.52076 -0.00317 -0.00590
							CHANNELS 3 Zrotation Yrotation Xrotation
							JOINT RightHand
							{
								OFFSET -3.32364 -0.00000 -0.00000
								CHANNELS 3 Zrotation Yrotation Xrotation
								JOINT RightFingerBase
								{
									OFFSET 0 0 0
									CHANNELS 3 Zrotation Yrotation Xrotation
									JOINT RightHandIndex1
									{
										OFFSET -0.73223 -0.00000 -0.00000
										CHANNELS 3 Zrotation Yrotation Xrotation
										End Site
										{
											OFFSET -0.59035 -0.00000 -0.00000
										}
									}
								}
								JOINT RThumb
								{
									OFFSET 0 0 0
									CHANNELS 3 Zrotation Yrotation Xrotation
									End Site
									{
										OFFSET -0.59936 -0.00000 0.59936
									}
								}
							}
						}
					}
				}
			}
		}
	}
}
MOTION
Frames: 12
Frame Time: 0.0188679
0.00 0.00 0.00 -139.3410 78.9792 223.1610 0.0000 0.0000 0.0000 -17.5337 -4.7195 -55.5032 14.8081 19.3411 74.6580 -0.2400 -9.2628 6.9421 0.4633 -4.3662 -12.1093 0.0000 0.0000 0.0000 31.6831 0.5897 -9.4799 -3.7880 -11.8728 35.2834 -2.4158 1.6604 -28.9786 -0.2122 2.9654 -8.1825 7.1419 2.3411 6.1475 3.2618 3.7151 2.3535 -0.8672 1.9337 -0.7767 15.4857 15.2592 -6.6082 -20.0488 28.8060 27.3542 -5.0620 13.0201 16.5738 -0.0000 -0.0000 0.0000 -87.2979 23.1664 22.0218 16.8551 -26.6663 -4.0221 -0.0000 0.0000 -0.2078 20.4756 25.7580 9.2170 -7.1250 0.0000 -0.0000 -10.2858 56.9342 -3.0300 -0.0000 -0.0000 0.0000 80.1245 -5.9995 22.8995 -23.5046 34.6359 -7.4231 0.0000 -0.0000 -8.4380 -17.9554 21.0394 -6.6360 7.1250 -0.0000 -0.0000 6.7724 -8.0897 5.7937
0.00 0.00 0.00 -140.8670 77.2989 221.0620 0.0000 0.0000 0.0000 -19.3120 -1.9560 -52.1772 9.5735 17.1629 58.0530 0.2430 -5.1343 12.6192 0.1097 -2.1355 -5.8802 0.0000 0.0000 0.0000 32.6994 -3.6112 -4.6364 -3.0050 -10.7032 31.2853 -2.4151 0.9750 -29.1609 -0.4021 4.0710 -11.2765 7.5295 2.6367 4.5685 2.5217 3.9357 2.2743 -1.7644 2.0632 0.1180 17.1939 15.3487 -6.0694 -19.5686 28.8311 27.8130 -5.1484 13.2505 16.8912 -0.0000 0.0000 0.0000 -84.1602 24.8419 25.5273 15.4171 -24.7240 -3.3985 -0.0000 0.0000 -3.4894 17.7956 26.7236 8.2134 -7.1250 0.0000 -0.0000 -13.6146 57.3261 -4.1623 -0.0000 0.0000 0.0000 81.7853 -6.6161 23.5110 -24.9303 36.1326 -8.2488 0.0000 -0.0000 -9.7246 -17.7218 20.6997 -6.4445 7.1250 -0.0000 -0.0000 6.9010 -8.4697 5.8531
0.00 0.00 0.00 -180.7820 31.3240 187.7130 0.0000 0.0000 0.0000 -30.0520 -12.0794 -17.0746 3.6359 11.6595 34.5379 -0.8577 -17.2383 -0.0940 0.0074 0.5541 1.5227 0.0000 0.0000 0.0000 12.4359 4.3797 -49.5469 -24.8183 -19.4340 104.2166 -0.3988 -1.1571 -12.4056 -0.9597 6.2379 -17.4764 5.8860 -1.0037 3.6124 -10.0173 -0.7756 -0.5871 -14.3039 -0.3535 -2.9218 22.2489 13.8722 -4.1616 -15.5720 24.2523 24.2449 -5.5188 12.2593 13.5784 -0.0000 -0.0000 0.0000 -66.2419 8.5401 48.8874 62.4552 -56.9295 -36.3914 -0.0000 0.0000 -9.8021 16.4598 23.0470 6.5978 -7.1250 0.0000 -0.0000 -13.1526 53.4226 -2.7620 -0.0000 -0.0000 0.0000 98.8057 -13.9323 22.5912 -18.4131 28.6829 -4.7459 0.0000 -0.0000 -1.9372 -18.2448 20.5673 -6.6059 7.1250 -0.0000 -0.0000 6.5586 -8.5362 5.5499
0.00 0.00 0.00 -182.3570 23.9249 186.2320 0.0000 0.0000 0.0000 -31.6350 -15.4030 -11.3066 3.6041 11.6141 34.3800 -0.8076 -16.0029 2.5073 0.1009 2.0484 5.6395 0.0000 0.0000 0.0000 9.4649 10.9416 -62.2847 -20.1055 -19.9997 90.3085 -1.1706 0.5500 -20.2842 -0.6842 5.2884 -14.7331 8.3752 -1.1756 5.7028 -11.8835 -0.4214 1.4907 -18.3212 0.1242 -1.8390 24.8715 12.8078 -5.2155 -12.7909 20.2281 23.0016 -5.6429 10.7370 12.3190 0.0000 -0.0000 0.0000 -60.6427 7.3473 48.7225 83.4299 -59.8363 -54.3132 -0.0000 0.0000 -12.4604 16.5449 22.8703 6.5858 -7.1250 0.0000 -0.0000 -12.9898 53.2627 -2.6756 0.0000 -0.0000 0.0000 102.5232 -8.4821 14.9574 -16.0065 25.5294 -3.6487 0.0000 0.0000 2.3361 -15.5198 31.4364 -8.2410 7.1250 -0.0000 -0.0000 9.0911 2.0516 9.5299
0.00 0.00 0.00 -183.1970 17.3945 186.0430 0.0000 0.0000 0.0000 -31.2942 -13.4001 -4.8859 3.2303 11.0588 32.4786 -1.0962 -18.1531 6.8208 0.0778 1.7991 4.9508 0.0000 0.0000 0.0000 8.7567 17.8735 -56.8824 -8.8277 -16.6955 55.4922 -0.3862 6.5878 -11.2974 -1.3848 7.4458 -21.0431 9.9238 -0.5071 6.1164 -13.2571 1.2584 3.7146 -21.3668 1.6857 1.0590 28.5844 11.6120 -9.2602 -9.8052 15.5543 23.5730 -5.7274 9.0443 12.4163 -0.0000 -0.0000 0.0000 -54.2138 5.9544 44.5426 81.8871 -59.7498 -52.9799 -0.0000 0.0000 -7.2871 10.6019 31.6386 5.6077 -7.1250 0.0000 -0.0000 -24.6017 60.3464 -9.5472 -0.0000 -0.0000 0.0000 107.1978 -4.6660 18.5911 -19.2517 29.7302 -5.1551 0.0000 0.0000 0.7563 -16.9116 24.0149 -7.0538 7.1250 -0.0000 -0.0000 7.6244 -5.1965 6.9658
0.00 0.00 0.00 -176.1110 5.6029 186.0510 0.0000 0.0000 0.0000 -14.2060 -5.6095 -46.1335 5.4270 13.8491 42.6364 0.2053 -4.4862 11.4002 0.4899 -4.4878 -12.4534 0.0000 0.0000 0.0000 27.9387 1.3999 -3.9781 -1.8822 -8.6163 24.6023 -1.8998 1.7752 -25.5824 -0.4441 4.2756 -11.8534 9.2182 -0.0010 9.7843 2.7452 1.4135 2.6100 -2.4834 0.8448 -2.6279 7.6423 10.5088 -14.3007 -9.5786 18.7177 27.7201 -1.6642 8.6150 13.3850 0.0000 0.0000 0.0000 -90.8285 20.1727 14.7688 16.1392 -25.7091 -3.7062 -0.0000 -0.0000 1.2319 6.7043 32.1688 3.5812 -7.1250 0.0000 -0.0000 -29.0571 59.9016 -11.1293 0.0000 0.0000 0.0000 80.1903 -4.1931 34.6235 -20.8472 31.6495 -5.9695 0.0000 -0.0000 -6.2080 -19.6639 22.6362 -7.8309 7.1250 -0.0000 -0.0000 5.8079 -6.1978 5.1742
0.00 0.00 0.00 -174.2840 10.3606 183.9370 0.0000 0.0000 0.0000 -1.6407 -11.6243 -54.0851 4.6073 12.9274 39.0974 0.4668 2.7097 12.2592 0.5283 -4.6577 -12.9349 0.0000 0.0000 0.0000 28.7564 -4.1421 8.4633 -0.5180 -4.6130 12.8079 -0.4045 0.1852 -11.9517 -0.9763 6.2901 -17.6284 6.0619 1.1012 5.4756 1.3750 2.0911 5.3336 -2.0245 1.4014 2.6056 18.8134 12.9765 -2.1680 -27.9618 30.9710 20.0438 -8.2072 15.2280 15.4354 0.0000 -0.0000 0.0000 -89.6576 13.2156 -1.3257 8.6311 -14.5706 -1.1055 -0.0000 -0.0000 19.3737 9.6141 26.2177 4.2797 -7.1250 0.0000 -0.0000 -21.6289 55.1824 -5.5997 0.0000 -0.0000 0.0000 77.4075 -4.9656 40.6648 -40.4652 48.3431 -18.7861 0.0000 -0.0000 -9.7711 -14.0443 20.3623 -4.9745 7.1250 -0.0000 -0.0000 9.2379 -9.2604 7.7348
0.00 0.00 0.00 -170.8540 7.8500 192.7610 0.0000 0.0000 0.0000 -1.6839 -15.5162 -54.9775 7.9280 16.0661 52.3031 0.3133 -4.6897 -9.9999 0.2986 -3.5134 -9.7115 0.0000 0.0000 0.0000 26.5969 -1.7571 10.1534 -0.6866 -5.2974 14.7588 -0.9515 -5.8458 17.4039 -1.1932 6.9314 -19.5124 4.9068 2.6768 7.0584 -1.5841 4.1270 3.6852 -4.6492 2.2715 0.3254 20.5306 19.4884 2.6871 -31.4376 30.2832 14.8068 -10.3910 13.5369 13.4623 -0.0000 -0.0000 0.0000 -84.7760 12.0221 13.7932 19.9616 -30.5960 -5.5118 -0.0000 0.0000 -2.8762 14.4056 27.1992 6.6963 -7.1250 0.0000 -0.0000 -17.4139 57.0702 -5.2583 -0.0000 -0.0000 0.0000 81.9610 -9.6836 49.6152 -53.2018 54.2079 -28.7517 0.0000 -0.0000 -15.0541 -11.9044 18.2125 -3.7697 7.1250 -0.0000 -0.0000 10.5784 -11.6329 8.3757
0.00 0.00 0.00 -176.2670 -4.7007 193.4680 0.0000 0.0000 0.0000 -12.4897 -23.8311 -42.9773 7.2914 15.5725 49.9681 0.3099 -10.4148 -11.5052 0.0486 -1.4222 -3.9113 0.0000 0.0000 0.0000 22.8000 4.1513 -15.2464 -9.6860 -17.2294 58.4335 -0.4463 -0.6877 12.3988 -1.6443 8.0821 -22.9636 1.0591 2.5106 9.0220 -2.2985 3.0395 3.8237 -3.2565 1.4025 -0.9033 19.8171 19.5855 5.2674 -33.6689 30.5522 11.3798 -11.1464 14.1544 12.1210 -0.0000 -0.0000 0.0000 -84.1623 7.6855 28.7390 72.7398 -58.8439 -45.1103 -0.0000 0.0000 -10.0661 20.1004 21.4604 7.6259 -7.1250 0.0000 -0.0000 -8.8790 52.4789 -1.6449 -0.0000 -0.0000 0.0000 83.0557 -6.8581 46.8100 -40.5323 48.3821 -18.8362 0.0000 -0.0000 -7.8477 -15.0127 21.0923 -5.5127 7.1250 -0.0000 -0.0000 8.6477 -8.4114 7.3765
0.00 0.00 0.00 -188.8290 -62.1897 193.7440 0.0000 0.0000 0.0000 -36.0476 12.0044 -46.4990 6.3815 14.7881 46.4944 0.7828 -8.2453 -15.9445 10.9624 -17.9166 -62.6594 0.0000 0.0000 0.0000 14.0040 4.8375 -18.6809 -5.0372 -13.4256 40.9833 -2.9417 2.7270 -31.8117 -0.6969 5.3364 -14.8704 3.6812 2.1822 3.5119 1.5371 2.9825 1.5221 -0.5902 1.4782 -0.2962 4.6340 15.6682 -5.9863 -12.6902 23.5957 22.9443 -2.3263 9.9175 10.4837 0.0000 -0.0000 0.0000 -83.1458 32.5742 38.9151 24.6071 -35.7997 -8.0590 -0.0000 0.0000 -15.3681 28.8897 39.0074 19.1527 -7.1250 0.0000 -0.0000 -10.3133 72.5254 -6.7607 0.0000 -0.0000 0.0000 76.4708 -6.3510 24.4181 -32.3317 42.8100 -12.9657 0.0000 -0.0000 -12.0995 -21.9523 21.3172 -8.3359 7.1250 -0.0000 -0.0000 4.2529 -7.2138 3.6956
0.00 0.00 0.00 -152.6360 -72.1447 158.2580 0.0000 0.0000 0.0000 -14.5486 1.4548 -27.5354 2.4105 9.6733 27.9250 0.1690 -8.2316 -8.7171 11.3201 -18.0882 -63.8169 0.0000 0.0000 0.0000 25.1842 -7.3359 -7.2466 -6.0693 -14.4951 45.2592 -3.3856 1.2093 -34.5932 -2.4202 9.6913 -27.9827 7.5719 1.4998 0.0396 3.4573 1.8258 0.7916 -0.6576 0.9022 0.9266 8.1451 15.5449 -7.0561 -14.5950 23.5729 23.4514 -3.3232 9.8664 11.6278 0.0000 0.0000 0.0000 -82.8279 20.1896 29.2597 30.3385 -41.1818 -11.6319 -0.0000 0.0000 -11.4206 17.3811 27.4429 8.2088 -7.1250 0.0000 -0.0000 -14.4623 57.9432 -4.6449 0.0000 0.0000 0.0000 78.8774 -10.3806 32.1336 -21.5869 32.5070 -6.3624 0.0000 -0.0000 -6.2030 -15.3777 21.3960 -5.7295 7.1250 -0.0000 -0.0000 8.4296 -8.0597 7.2454
0.00 0.00 0.00 -356.4560 -80.4239 365.0860 0.0000 0.0000 0.0000 -16.7340 -9.3080 -33.6877 21.0938 19.9713 93.1995 -1.1739 -18.8131 8.7215 6.8468 -15.2015 -48.2926 0.0000 0.0000 0.0000 16.8479 9.4244 -40.3210 -8.8795 -16.7296 55.6726 -1.8749 0.3963 -25.8008 -0.2422 3.1668 -8.7435 4.8695 -0.7124 11.7014 1.9691 -0.5473 4.6303 -0.6206 -0.3243 -1.7307 15.9887 15.9806 -3.3431 -26.7828 25.2174 14.9169 -8.5669 11.1494 11.2354 -0.0000 -0.0000 0.0000 -80.1867 14.3412 39.2144 23.8261 -34.9799 -7.6067 -0.0000 0.0000 -13.7370 19.2300 24.5554 8.2483 -7.1250 0.0000 -0.0000 -11.0229 55.4619 -2.8559 -0.0000 -0.0000 0.0000 80.7728 -1.9678 30.8727 -28.5243 39.5944 -10.4561 0.0000 -0.0000 -10.0685 -17.6378 21.3557 -6.6044 7.1250 -0.0000 -0.0000 6.9938 -7.8082 6.0251
